<?xml version="1.0" encoding="utf-8"?>
<!-- Generator: Adobe Illustrator 19.0.0, SVG Export Plug-In . SVG Version: 6.00 Build 0)  -->
<svg version="1.1" id="Layer_1" xmlns="http://www.w3.org/2000/svg" xmlns:xlink="http://www.w3.org/1999/xlink" x="0px" y="0px"
	 viewBox="0 0 177.1 154.3" style="enable-background:new 0 0 177.1 154.3;" xml:space="preserve">
<style type="text/css">
	.st0{fill:#009444;}
	.st1{fill:#EC008C;}
</style>
<g id="XMLID_70_">
	<path id="XMLID_71_" class="st0" d="M100.9,37.5C94.8,15.9,75,0,51.4,0C23,0,0,23,0,51.4s23,51.4,51.4,51.4c0.6,0,1.3,0,1.9,0
		c-1.2-4.4-1.9-9.1-1.9-14C51.4,61.1,73.4,38.5,100.9,37.5z"/>
	<path id="XMLID_72_" class="st1" d="M125.7,51.4c-0.6,0-1.3,0-1.9,0c1.2,4.4,1.9,9.1,1.9,14c0,27.8-22,50.4-49.5,51.4
		c6.1,21.6,25.9,37.5,49.5,37.5c28.4,0,51.4-23,51.4-51.4S154.1,51.4,125.7,51.4z"/>
	<path id="XMLID_73_" class="st1" d="M114.2,58.1c0-4.8-0.7-9.5-1.9-14c-27.5,1-49.5,23.6-49.5,51.4c0,4.8,0.7,9.5,1.9,14
		C92.2,108.5,114.2,85.9,114.2,58.1z"/>
</g>
</svg>
