<svg xmlns="http://www.w3.org/2000/svg" viewBox="0 0 177.1 154.3"><style type="text/css">  
	.st0{fill:#009444;}
	.st1{fill:#EC008C;}
</style><path class="st0" d="M100.9 37.5C94.8 15.9 75 0 51.4 0 23 0 0 23 0 51.4s23 51.4 51.4 51.4c0.6 0 1.3 0 1.9 0 -1.2-4.4-1.9-9.1-1.9-14C51.4 61.1 73.4 38.5 100.9 37.5z"/><path class="st1" d="M125.7 51.4c-0.6 0-1.3 0-1.9 0 1.2 4.4 1.9 9.1 1.9 14 0 27.8-22 50.4-49.5 51.4 6.1 21.6 25.9 37.5 49.5 37.5 28.4 0 51.4-23 51.4-51.4S154.1 51.4 125.7 51.4z"/><path class="st1" d="M114.2 58.1c0-4.8-0.7-9.5-1.9-14 -27.5 1-49.5 23.6-49.5 51.4 0 4.8 0.7 9.5 1.9 14C92.2 108.5 114.2 85.9 114.2 58.1z"/></svg>